<svg width="664" height="478" viewBox="0 0 664 478" fill="none" xmlns="http://www.w3.org/2000/svg">
<path d="M110.444 72.3391C93.0218 88.838 88.9502 106.867 97.8145 125.718C101.378 133.297 111.239 134.258 117.64 128.878C123.744 123.748 123.577 114.425 123.8 106.445C123.921 102.113 125.684 97.8147 129.274 94.0019C136.786 86.3846 146.155 81.7706 152.975 85.1667C160.47 88.9732 160.613 100.588 160.301 105.74C159.743 115.336 154.957 126.204 155.496 135.53C155.931 140.961 158.033 146.023 161.196 151.224C165.04 157.547 173.734 158.342 179.391 153.588C184.756 149.08 185.123 141.37 181.916 135.128C180.628 132.621 179.784 130.126 179.645 127.622C179.139 117.942 183.495 109.718 184.922 100.37C186.476 91.5669 187.616 81.4816 181.336 72.4158C163.95 44.9763 133.429 50.4154 110.444 72.3391Z" fill="url(#paint0_linear_1_170)"/>
<path d="M207.858 186.517C214.823 180.661 215.878 170.435 210.213 163.677C204.548 156.919 194.309 156.189 187.344 162.045C180.379 167.901 179.325 178.127 184.989 184.884C190.654 191.642 200.893 192.373 207.858 186.517Z" fill="url(#paint1_linear_1_170)"/>
<g filter="url(#filter0_d_1_170)">
<rect x="202" width="442" height="301" rx="30" fill="white"/>
</g>
<path d="M234.285 98.207H235.1C235.611 98.1992 236.014 98.0645 236.307 97.8027C236.6 97.541 236.746 97.1875 236.746 96.7422C236.746 95.7422 236.248 95.2422 235.252 95.2422C234.783 95.2422 234.408 95.377 234.127 95.6465C233.85 95.9121 233.711 96.2656 233.711 96.707H232.627C232.627 96.0312 232.873 95.4707 233.365 95.0254C233.861 94.5762 234.49 94.3516 235.252 94.3516C236.057 94.3516 236.688 94.5645 237.145 94.9902C237.602 95.416 237.83 96.0078 237.83 96.7656C237.83 97.1367 237.709 97.4961 237.467 97.8438C237.229 98.1914 236.902 98.4512 236.488 98.623C236.957 98.7715 237.318 99.0176 237.572 99.3613C237.83 99.7051 237.959 100.125 237.959 100.621C237.959 101.387 237.709 101.994 237.209 102.443C236.709 102.893 236.059 103.117 235.258 103.117C234.457 103.117 233.805 102.9 233.301 102.467C232.801 102.033 232.551 101.461 232.551 100.75H233.641C233.641 101.199 233.787 101.559 234.08 101.828C234.373 102.098 234.766 102.232 235.258 102.232C235.781 102.232 236.182 102.096 236.459 101.822C236.736 101.549 236.875 101.156 236.875 100.645C236.875 100.148 236.723 99.7676 236.418 99.502C236.113 99.2363 235.674 99.0996 235.1 99.0918H234.285V98.207ZM245.037 99.3613C245.037 100.631 244.82 101.574 244.386 102.191C243.953 102.809 243.275 103.117 242.353 103.117C241.443 103.117 240.769 102.816 240.332 102.215C239.894 101.609 239.668 100.707 239.652 99.5078V98.0605C239.652 96.8066 239.869 95.875 240.302 95.2656C240.736 94.6562 241.416 94.3516 242.342 94.3516C243.26 94.3516 243.935 94.6465 244.369 95.2363C244.802 95.8223 245.025 96.7285 245.037 97.9551V99.3613ZM243.953 97.8789C243.953 96.9609 243.824 96.293 243.566 95.875C243.308 95.4531 242.9 95.2422 242.342 95.2422C241.787 95.2422 241.383 95.4512 241.129 95.8691C240.875 96.2871 240.744 96.9297 240.736 97.7969V99.5312C240.736 100.453 240.869 101.135 241.135 101.576C241.404 102.014 241.81 102.232 242.353 102.232C242.888 102.232 243.285 102.025 243.543 101.611C243.804 101.197 243.941 100.545 243.953 99.6543V97.8789ZM252.015 99.3613C252.015 100.631 251.798 101.574 251.365 102.191C250.931 102.809 250.253 103.117 249.332 103.117C248.421 103.117 247.748 102.816 247.31 102.215C246.873 101.609 246.646 100.707 246.63 99.5078V98.0605C246.63 96.8066 246.847 95.875 247.281 95.2656C247.714 94.6562 248.394 94.3516 249.32 94.3516C250.238 94.3516 250.914 94.6465 251.347 95.2363C251.781 95.8223 252.003 96.7285 252.015 97.9551V99.3613ZM250.931 97.8789C250.931 96.9609 250.802 96.293 250.544 95.875C250.287 95.4531 249.878 95.2422 249.32 95.2422C248.765 95.2422 248.361 95.4512 248.107 95.8691C247.853 96.2871 247.722 96.9297 247.714 97.7969V99.5312C247.714 100.453 247.847 101.135 248.113 101.576C248.382 102.014 248.789 102.232 249.332 102.232C249.867 102.232 250.263 102.025 250.521 101.611C250.783 101.197 250.919 100.545 250.931 99.6543V97.8789Z" fill="#C9C9C9"/>
<path d="M238.299 151H232.709V150.221L235.662 146.939C236.1 146.443 236.4 146.041 236.564 145.732C236.732 145.42 236.816 145.098 236.816 144.766C236.816 144.32 236.682 143.955 236.412 143.67C236.143 143.385 235.783 143.242 235.334 143.242C234.795 143.242 234.375 143.396 234.074 143.705C233.777 144.01 233.629 144.436 233.629 144.982H232.545C232.545 144.197 232.797 143.562 233.301 143.078C233.809 142.594 234.486 142.352 235.334 142.352C236.127 142.352 236.754 142.561 237.215 142.979C237.676 143.393 237.906 143.945 237.906 144.637C237.906 145.477 237.371 146.477 236.301 147.637L234.016 150.115H238.299V151ZM245.037 147.361C245.037 148.631 244.82 149.574 244.386 150.191C243.953 150.809 243.275 151.117 242.353 151.117C241.443 151.117 240.769 150.816 240.332 150.215C239.894 149.609 239.668 148.707 239.652 147.508V146.061C239.652 144.807 239.869 143.875 240.302 143.266C240.736 142.656 241.416 142.352 242.342 142.352C243.26 142.352 243.935 142.646 244.369 143.236C244.802 143.822 245.025 144.729 245.037 145.955V147.361ZM243.953 145.879C243.953 144.961 243.824 144.293 243.566 143.875C243.308 143.453 242.9 143.242 242.342 143.242C241.787 143.242 241.383 143.451 241.129 143.869C240.875 144.287 240.744 144.93 240.736 145.797V147.531C240.736 148.453 240.869 149.135 241.135 149.576C241.404 150.014 241.81 150.232 242.353 150.232C242.888 150.232 243.285 150.025 243.543 149.611C243.804 149.197 243.941 148.545 243.953 147.654V145.879ZM252.015 147.361C252.015 148.631 251.798 149.574 251.365 150.191C250.931 150.809 250.253 151.117 249.332 151.117C248.421 151.117 247.748 150.816 247.31 150.215C246.873 149.609 246.646 148.707 246.63 147.508V146.061C246.63 144.807 246.847 143.875 247.281 143.266C247.714 142.656 248.394 142.352 249.32 142.352C250.238 142.352 250.914 142.646 251.347 143.236C251.781 143.822 252.003 144.729 252.015 145.955V147.361ZM250.931 145.879C250.931 144.961 250.802 144.293 250.544 143.875C250.287 143.453 249.878 143.242 249.32 143.242C248.765 143.242 248.361 143.451 248.107 143.869C247.853 144.287 247.722 144.93 247.714 145.797V147.531C247.714 148.453 247.847 149.135 248.113 149.576C248.382 150.014 248.789 150.232 249.332 150.232C249.867 150.232 250.263 150.025 250.521 149.611C250.783 149.197 250.919 148.545 250.931 147.654V145.879Z" fill="#C9C9C9"/>
<path d="M236.271 199H235.182V191.775L232.996 192.578V191.594L236.102 190.428H236.271V199ZM245.037 195.361C245.037 196.631 244.82 197.574 244.386 198.191C243.953 198.809 243.275 199.117 242.353 199.117C241.443 199.117 240.769 198.816 240.332 198.215C239.894 197.609 239.668 196.707 239.652 195.508V194.061C239.652 192.807 239.869 191.875 240.302 191.266C240.736 190.656 241.416 190.352 242.342 190.352C243.26 190.352 243.935 190.646 244.369 191.236C244.802 191.822 245.025 192.729 245.037 193.955V195.361ZM243.953 193.879C243.953 192.961 243.824 192.293 243.566 191.875C243.308 191.453 242.9 191.242 242.342 191.242C241.787 191.242 241.383 191.451 241.129 191.869C240.875 192.287 240.744 192.93 240.736 193.797V195.531C240.736 196.453 240.869 197.135 241.135 197.576C241.404 198.014 241.81 198.232 242.353 198.232C242.888 198.232 243.285 198.025 243.543 197.611C243.804 197.197 243.941 196.545 243.953 195.654V193.879ZM252.015 195.361C252.015 196.631 251.798 197.574 251.365 198.191C250.931 198.809 250.253 199.117 249.332 199.117C248.421 199.117 247.748 198.816 247.31 198.215C246.873 197.609 246.646 196.707 246.63 195.508V194.061C246.63 192.807 246.847 191.875 247.281 191.266C247.714 190.656 248.394 190.352 249.32 190.352C250.238 190.352 250.914 190.646 251.347 191.236C251.781 191.822 252.003 192.729 252.015 193.955V195.361ZM250.931 193.879C250.931 192.961 250.802 192.293 250.544 191.875C250.287 191.453 249.878 191.242 249.32 191.242C248.765 191.242 248.361 191.451 248.107 191.869C247.853 192.287 247.722 192.93 247.714 193.797V195.531C247.714 196.453 247.847 197.135 248.113 197.576C248.382 198.014 248.789 198.232 249.332 198.232C249.867 198.232 250.263 198.025 250.521 197.611C250.783 197.197 250.919 196.545 250.931 195.654V193.879Z" fill="#C9C9C9"/>
<path d="M245.059 273.361C245.059 274.631 244.842 275.574 244.408 276.191C243.975 276.809 243.297 277.117 242.375 277.117C241.465 277.117 240.791 276.816 240.354 276.215C239.916 275.609 239.689 274.707 239.674 273.508V272.061C239.674 270.807 239.891 269.875 240.324 269.266C240.758 268.656 241.438 268.352 242.363 268.352C243.281 268.352 243.957 268.646 244.391 269.236C244.824 269.822 245.047 270.729 245.059 271.955V273.361ZM243.975 271.879C243.975 270.961 243.846 270.293 243.588 269.875C243.33 269.453 242.922 269.242 242.363 269.242C241.809 269.242 241.404 269.451 241.15 269.869C240.896 270.287 240.766 270.93 240.758 271.797V273.531C240.758 274.453 240.891 275.135 241.156 275.576C241.426 276.014 241.832 276.232 242.375 276.232C242.91 276.232 243.307 276.025 243.564 275.611C243.826 275.197 243.963 274.545 243.975 273.654V271.879ZM252.037 273.361C252.037 274.631 251.82 275.574 251.386 276.191C250.953 276.809 250.275 277.117 249.353 277.117C248.443 277.117 247.769 276.816 247.332 276.215C246.894 275.609 246.668 274.707 246.652 273.508V272.061C246.652 270.807 246.869 269.875 247.302 269.266C247.736 268.656 248.416 268.352 249.342 268.352C250.26 268.352 250.935 268.646 251.369 269.236C251.802 269.822 252.025 270.729 252.037 271.955V273.361ZM250.953 271.879C250.953 270.961 250.824 270.293 250.566 269.875C250.308 269.453 249.9 269.242 249.342 269.242C248.787 269.242 248.383 269.451 248.129 269.869C247.875 270.287 247.744 270.93 247.736 271.797V273.531C247.736 274.453 247.869 275.135 248.135 275.576C248.404 276.014 248.81 276.232 249.353 276.232C249.888 276.232 250.285 276.025 250.543 275.611C250.804 275.197 250.941 274.545 250.953 273.654V271.879Z" fill="#C9C9C9"/>
<path d="M292.271 277H291.182V269.775L288.996 270.578V269.594L292.102 268.428H292.271V277ZM301.037 273.361C301.037 274.631 300.82 275.574 300.386 276.191C299.953 276.809 299.275 277.117 298.353 277.117C297.443 277.117 296.769 276.816 296.332 276.215C295.894 275.609 295.668 274.707 295.652 273.508V272.061C295.652 270.807 295.869 269.875 296.302 269.266C296.736 268.656 297.416 268.352 298.342 268.352C299.26 268.352 299.935 268.646 300.369 269.236C300.802 269.822 301.025 270.729 301.037 271.955V273.361ZM299.953 271.879C299.953 270.961 299.824 270.293 299.566 269.875C299.308 269.453 298.9 269.242 298.342 269.242C297.787 269.242 297.383 269.451 297.129 269.869C296.875 270.287 296.744 270.93 296.736 271.797V273.531C296.736 274.453 296.869 275.135 297.135 275.576C297.404 276.014 297.81 276.232 298.353 276.232C298.888 276.232 299.285 276.025 299.543 275.611C299.804 275.197 299.941 274.545 299.953 273.654V271.879Z" fill="#C9C9C9"/>
<path d="M343.299 277H337.709V276.221L340.662 272.939C341.1 272.443 341.4 272.041 341.564 271.732C341.732 271.42 341.816 271.098 341.816 270.766C341.816 270.32 341.682 269.955 341.412 269.67C341.143 269.385 340.783 269.242 340.334 269.242C339.795 269.242 339.375 269.396 339.074 269.705C338.777 270.01 338.629 270.436 338.629 270.982H337.545C337.545 270.197 337.797 269.562 338.301 269.078C338.809 268.594 339.486 268.352 340.334 268.352C341.127 268.352 341.754 268.561 342.215 268.979C342.676 269.393 342.906 269.945 342.906 270.637C342.906 271.477 342.371 272.477 341.301 273.637L339.016 276.115H343.299V277ZM350.037 273.361C350.037 274.631 349.82 275.574 349.386 276.191C348.953 276.809 348.275 277.117 347.353 277.117C346.443 277.117 345.769 276.816 345.332 276.215C344.894 275.609 344.668 274.707 344.652 273.508V272.061C344.652 270.807 344.869 269.875 345.302 269.266C345.736 268.656 346.416 268.352 347.342 268.352C348.26 268.352 348.935 268.646 349.369 269.236C349.802 269.822 350.025 270.729 350.037 271.955V273.361ZM348.953 271.879C348.953 270.961 348.824 270.293 348.566 269.875C348.308 269.453 347.9 269.242 347.342 269.242C346.787 269.242 346.383 269.451 346.129 269.869C345.875 270.287 345.744 270.93 345.736 271.797V273.531C345.736 274.453 345.869 275.135 346.135 275.576C346.404 276.014 346.81 276.232 347.353 276.232C347.888 276.232 348.285 276.025 348.543 275.611C348.804 275.197 348.941 274.545 348.953 273.654V271.879Z" fill="#C9C9C9"/>
<path d="M388.285 272.207H389.1C389.611 272.199 390.014 272.064 390.307 271.803C390.6 271.541 390.746 271.188 390.746 270.742C390.746 269.742 390.248 269.242 389.252 269.242C388.783 269.242 388.408 269.377 388.127 269.646C387.85 269.912 387.711 270.266 387.711 270.707H386.627C386.627 270.031 386.873 269.471 387.365 269.025C387.861 268.576 388.49 268.352 389.252 268.352C390.057 268.352 390.688 268.564 391.145 268.99C391.602 269.416 391.83 270.008 391.83 270.766C391.83 271.137 391.709 271.496 391.467 271.844C391.229 272.191 390.902 272.451 390.488 272.623C390.957 272.771 391.318 273.018 391.572 273.361C391.83 273.705 391.959 274.125 391.959 274.621C391.959 275.387 391.709 275.994 391.209 276.443C390.709 276.893 390.059 277.117 389.258 277.117C388.457 277.117 387.805 276.9 387.301 276.467C386.801 276.033 386.551 275.461 386.551 274.75H387.641C387.641 275.199 387.787 275.559 388.08 275.828C388.373 276.098 388.766 276.232 389.258 276.232C389.781 276.232 390.182 276.096 390.459 275.822C390.736 275.549 390.875 275.156 390.875 274.645C390.875 274.148 390.723 273.768 390.418 273.502C390.113 273.236 389.674 273.1 389.1 273.092H388.285V272.207ZM399.037 273.361C399.037 274.631 398.82 275.574 398.386 276.191C397.953 276.809 397.275 277.117 396.353 277.117C395.443 277.117 394.769 276.816 394.332 276.215C393.894 275.609 393.668 274.707 393.652 273.508V272.061C393.652 270.807 393.869 269.875 394.302 269.266C394.736 268.656 395.416 268.352 396.342 268.352C397.26 268.352 397.935 268.646 398.369 269.236C398.802 269.822 399.025 270.729 399.037 271.955V273.361ZM397.953 271.879C397.953 270.961 397.824 270.293 397.566 269.875C397.308 269.453 396.9 269.242 396.342 269.242C395.787 269.242 395.383 269.451 395.129 269.869C394.875 270.287 394.744 270.93 394.736 271.797V273.531C394.736 274.453 394.869 275.135 395.135 275.576C395.404 276.014 395.81 276.232 396.353 276.232C396.888 276.232 397.285 276.025 397.543 275.611C397.804 275.197 397.941 274.545 397.953 273.654V271.879Z" fill="#C9C9C9"/>
<path d="M440.285 274.135H441.469V275.02H440.285V277H439.195V275.02H435.311V274.381L439.131 268.469H440.285V274.135ZM436.541 274.135H439.195V269.951L439.066 270.186L436.541 274.135ZM448.037 273.361C448.037 274.631 447.82 275.574 447.386 276.191C446.953 276.809 446.275 277.117 445.353 277.117C444.443 277.117 443.769 276.816 443.332 276.215C442.894 275.609 442.668 274.707 442.652 273.508V272.061C442.652 270.807 442.869 269.875 443.302 269.266C443.736 268.656 444.416 268.352 445.342 268.352C446.26 268.352 446.935 268.646 447.369 269.236C447.802 269.822 448.025 270.729 448.037 271.955V273.361ZM446.953 271.879C446.953 270.961 446.824 270.293 446.566 269.875C446.308 269.453 445.9 269.242 445.342 269.242C444.787 269.242 444.383 269.451 444.129 269.869C443.875 270.287 443.744 270.93 443.736 271.797V273.531C443.736 274.453 443.869 275.135 444.135 275.576C444.404 276.014 444.81 276.232 445.353 276.232C445.888 276.232 446.285 276.025 446.543 275.611C446.804 275.197 446.941 274.545 446.953 273.654V271.879Z" fill="#C9C9C9"/>
<path d="M485.207 272.723L485.641 268.469H490.012V269.471H486.561L486.303 271.797C486.721 271.551 487.195 271.428 487.727 271.428C488.504 271.428 489.121 271.686 489.578 272.201C490.035 272.713 490.264 273.406 490.264 274.281C490.264 275.16 490.025 275.854 489.549 276.361C489.076 276.865 488.414 277.117 487.562 277.117C486.809 277.117 486.193 276.908 485.717 276.49C485.24 276.072 484.969 275.494 484.902 274.756H485.928C485.994 275.244 486.168 275.613 486.449 275.863C486.73 276.109 487.102 276.232 487.562 276.232C488.066 276.232 488.461 276.061 488.746 275.717C489.035 275.373 489.18 274.898 489.18 274.293C489.18 273.723 489.023 273.266 488.711 272.922C488.402 272.574 487.99 272.4 487.475 272.4C487.002 272.4 486.631 272.504 486.361 272.711L486.074 272.945L485.207 272.723ZM497.037 273.361C497.037 274.631 496.82 275.574 496.386 276.191C495.953 276.809 495.275 277.117 494.353 277.117C493.443 277.117 492.769 276.816 492.332 276.215C491.894 275.609 491.668 274.707 491.652 273.508V272.061C491.652 270.807 491.869 269.875 492.302 269.266C492.736 268.656 493.416 268.352 494.342 268.352C495.26 268.352 495.935 268.646 496.369 269.236C496.802 269.822 497.025 270.729 497.037 271.955V273.361ZM495.953 271.879C495.953 270.961 495.824 270.293 495.566 269.875C495.308 269.453 494.9 269.242 494.342 269.242C493.787 269.242 493.383 269.451 493.129 269.869C492.875 270.287 492.744 270.93 492.736 271.797V273.531C492.736 274.453 492.869 275.135 493.135 275.576C493.404 276.014 493.81 276.232 494.353 276.232C494.888 276.232 495.285 276.025 495.543 275.611C495.804 275.197 495.941 274.545 495.953 273.654V271.879Z" fill="#C9C9C9"/>
<path d="M537.963 268.463V269.383H537.764C536.92 269.398 536.248 269.648 535.748 270.133C535.248 270.617 534.959 271.299 534.881 272.178C535.33 271.662 535.943 271.404 536.721 271.404C537.463 271.404 538.055 271.666 538.496 272.189C538.941 272.713 539.164 273.389 539.164 274.217C539.164 275.096 538.924 275.799 538.443 276.326C537.967 276.854 537.326 277.117 536.521 277.117C535.705 277.117 535.043 276.805 534.535 276.18C534.027 275.551 533.773 274.742 533.773 273.754V273.338C533.773 271.768 534.107 270.568 534.775 269.74C535.447 268.908 536.445 268.482 537.77 268.463H537.963ZM536.539 272.307C536.168 272.307 535.826 272.418 535.514 272.641C535.201 272.863 534.984 273.143 534.863 273.479V273.877C534.863 274.58 535.021 275.146 535.338 275.576C535.654 276.006 536.049 276.221 536.521 276.221C537.01 276.221 537.393 276.041 537.67 275.682C537.951 275.322 538.092 274.852 538.092 274.27C538.092 273.684 537.949 273.211 537.664 272.852C537.383 272.488 537.008 272.307 536.539 272.307ZM546.037 273.361C546.037 274.631 545.82 275.574 545.386 276.191C544.953 276.809 544.275 277.117 543.353 277.117C542.443 277.117 541.769 276.816 541.332 276.215C540.894 275.609 540.668 274.707 540.652 273.508V272.061C540.652 270.807 540.869 269.875 541.302 269.266C541.736 268.656 542.416 268.352 543.342 268.352C544.26 268.352 544.935 268.646 545.369 269.236C545.802 269.822 546.025 270.729 546.037 271.955V273.361ZM544.953 271.879C544.953 270.961 544.824 270.293 544.566 269.875C544.308 269.453 543.9 269.242 543.342 269.242C542.787 269.242 542.383 269.451 542.129 269.869C541.875 270.287 541.744 270.93 541.736 271.797V273.531C541.736 274.453 541.869 275.135 542.135 275.576C542.404 276.014 542.81 276.232 543.353 276.232C543.888 276.232 544.285 276.025 544.543 275.611C544.804 275.197 544.941 274.545 544.953 273.654V271.879Z" fill="#C9C9C9"/>
<path d="M588.217 269.078L584.684 277H583.547L587.068 269.359H582.451V268.469H588.217V269.078ZM595.037 273.361C595.037 274.631 594.82 275.574 594.386 276.191C593.953 276.809 593.275 277.117 592.353 277.117C591.443 277.117 590.769 276.816 590.332 276.215C589.894 275.609 589.668 274.707 589.652 273.508V272.061C589.652 270.807 589.869 269.875 590.302 269.266C590.736 268.656 591.416 268.352 592.342 268.352C593.26 268.352 593.935 268.646 594.369 269.236C594.802 269.822 595.025 270.729 595.037 271.955V273.361ZM593.953 271.879C593.953 270.961 593.824 270.293 593.566 269.875C593.308 269.453 592.9 269.242 592.342 269.242C591.787 269.242 591.383 269.451 591.129 269.869C590.875 270.287 590.744 270.93 590.736 271.797V273.531C590.736 274.453 590.869 275.135 591.135 275.576C591.404 276.014 591.81 276.232 592.353 276.232C592.888 276.232 593.285 276.025 593.543 275.611C593.804 275.197 593.941 274.545 593.953 273.654V271.879Z" fill="#C9C9C9"/>
<path d="M238.059 243.361C238.059 244.631 237.842 245.574 237.408 246.191C236.975 246.809 236.297 247.117 235.375 247.117C234.465 247.117 233.791 246.816 233.354 246.215C232.916 245.609 232.689 244.707 232.674 243.508V242.061C232.674 240.807 232.891 239.875 233.324 239.266C233.758 238.656 234.438 238.352 235.363 238.352C236.281 238.352 236.957 238.646 237.391 239.236C237.824 239.822 238.047 240.729 238.059 241.955V243.361ZM236.975 241.879C236.975 240.961 236.846 240.293 236.588 239.875C236.33 239.453 235.922 239.242 235.363 239.242C234.809 239.242 234.404 239.451 234.15 239.869C233.896 240.287 233.766 240.93 233.758 241.797V243.531C233.758 244.453 233.891 245.135 234.156 245.576C234.426 246.014 234.832 246.232 235.375 246.232C235.91 246.232 236.307 246.025 236.564 245.611C236.826 245.197 236.963 244.545 236.975 243.654V241.879ZM245.037 243.361C245.037 244.631 244.82 245.574 244.386 246.191C243.953 246.809 243.275 247.117 242.353 247.117C241.443 247.117 240.769 246.816 240.332 246.215C239.894 245.609 239.668 244.707 239.652 243.508V242.061C239.652 240.807 239.869 239.875 240.302 239.266C240.736 238.656 241.416 238.352 242.342 238.352C243.26 238.352 243.935 238.646 244.369 239.236C244.802 239.822 245.025 240.729 245.037 241.955V243.361ZM243.953 241.879C243.953 240.961 243.824 240.293 243.566 239.875C243.308 239.453 242.9 239.242 242.342 239.242C241.787 239.242 241.383 239.451 241.129 239.869C240.875 240.287 240.744 240.93 240.736 241.797V243.531C240.736 244.453 240.869 245.135 241.135 245.576C241.404 246.014 241.81 246.232 242.353 246.232C242.888 246.232 243.285 246.025 243.543 245.611C243.804 245.197 243.941 244.545 243.953 243.654V241.879Z" fill="#C9C9C9"/>
<circle cx="232" cy="37" r="10" fill="#FACA10"/>
<line x1="226" y1="117.5" x2="620" y2="117.5" stroke="#D5D5D5"/>
<line x1="226" y1="165.5" x2="620" y2="165.5" stroke="#D5D5D5"/>
<line x1="226" y1="213.5" x2="620" y2="213.5" stroke="#D5D5D5"/>
<line x1="226" y1="261.5" x2="620" y2="261.5" stroke="#D5D5D5"/>
<rect x="287" y="128" width="16" height="127" rx="8" fill="url(#paint2_linear_1_170)"/>
<rect x="336" y="105" width="16" height="150" rx="8" fill="url(#paint3_linear_1_170)"/>
<rect x="385" y="118" width="16" height="137" rx="8" fill="url(#paint4_linear_1_170)"/>
<rect x="434" y="81" width="16" height="174" rx="8" fill="url(#paint5_linear_1_170)"/>
<rect x="483" y="109" width="16" height="146" rx="8" fill="url(#paint6_linear_1_170)"/>
<rect x="532" y="97" width="16" height="158" rx="8" fill="url(#paint7_linear_1_170)"/>
<rect x="581" y="109" width="16" height="146" rx="8" fill="url(#paint8_linear_1_170)"/>
<g filter="url(#filter1_d_1_170)">
<rect x="64" y="166" width="201" height="247" rx="30" fill="white"/>
</g>
<path d="M151 230C151 236.75 148.866 243.327 144.902 248.791C140.938 254.254 135.349 258.325 128.932 260.42C122.515 262.515 115.601 262.527 109.177 260.455C102.753 258.383 97.1483 254.332 93.1652 248.883C89.1822 243.433 87.0243 236.864 87.0002 230.114C86.9761 223.364 89.0871 216.78 93.0312 211.302C96.9753 205.824 102.55 201.734 108.96 199.616C115.369 197.498 122.283 197.461 128.715 199.51L119 230H151Z" fill="#FACA10"/>
<path d="M133.461 197.168C139.447 199.447 144.612 203.471 148.286 208.719C151.96 213.966 153.974 220.195 154.069 226.6L122.072 227.072L133.461 197.168Z" fill="#FACA10"/>
<rect x="178" y="208" width="68" height="10" fill="#EDECEC"/>
<rect x="178" y="230" width="68" height="10" fill="#EDECEC"/>
<rect x="178" y="252" width="68" height="10" fill="#EDECEC"/>
<rect x="91" y="296" width="155" height="10" fill="#EDECEC"/>
<rect x="91" y="322" width="155" height="10" fill="#EDECEC"/>
<rect x="91" y="348" width="155" height="37" fill="#EDECEC"/>
<defs>
<filter id="filter0_d_1_170" x="182" y="0" width="482" height="344" filterUnits="userSpaceOnUse" color-interpolation-filters="sRGB">
<feFlood flood-opacity="0" result="BackgroundImageFix"/>
<feColorMatrix in="SourceAlpha" type="matrix" values="0 0 0 0 0 0 0 0 0 0 0 0 0 0 0 0 0 0 127 0" result="hardAlpha"/>
<feOffset dy="23"/>
<feGaussianBlur stdDeviation="10"/>
<feColorMatrix type="matrix" values="0 0 0 0 0 0 0 0 0 0 0 0 0 0 0 0 0 0 0.05 0"/>
<feBlend mode="normal" in2="BackgroundImageFix" result="effect1_dropShadow_1_170"/>
<feBlend mode="normal" in="SourceGraphic" in2="effect1_dropShadow_1_170" result="shape"/>
</filter>
<filter id="filter1_d_1_170" x="0" y="147" width="285" height="331" filterUnits="userSpaceOnUse" color-interpolation-filters="sRGB">
<feFlood flood-opacity="0" result="BackgroundImageFix"/>
<feColorMatrix in="SourceAlpha" type="matrix" values="0 0 0 0 0 0 0 0 0 0 0 0 0 0 0 0 0 0 127 0" result="hardAlpha"/>
<feOffset dx="-22" dy="23"/>
<feGaussianBlur stdDeviation="21"/>
<feColorMatrix type="matrix" values="0 0 0 0 0 0 0 0 0 0 0 0 0 0 0 0 0 0 0.05 0"/>
<feBlend mode="normal" in2="BackgroundImageFix" result="effect1_dropShadow_1_170"/>
<feBlend mode="normal" in="SourceGraphic" in2="effect1_dropShadow_1_170" result="shape"/>
</filter>
<linearGradient id="paint0_linear_1_170" x1="113.615" y1="69.4508" x2="182.281" y2="151.159" gradientUnits="userSpaceOnUse">
<stop stop-color="#FACA10"/>
<stop offset="1" stop-color="#FFF3C4"/>
</linearGradient>
<linearGradient id="paint1_linear_1_170" x1="187.344" y1="162.045" x2="207.894" y2="186.486" gradientUnits="userSpaceOnUse">
<stop stop-color="#FACA10"/>
<stop offset="1" stop-color="#FFF3C4"/>
</linearGradient>
<linearGradient id="paint2_linear_1_170" x1="295" y1="128" x2="295" y2="255" gradientUnits="userSpaceOnUse">
<stop stop-color="#FACA10"/>
<stop offset="1" stop-color="#FFF3C4"/>
</linearGradient>
<linearGradient id="paint3_linear_1_170" x1="344" y1="105" x2="344" y2="255" gradientUnits="userSpaceOnUse">
<stop stop-color="#FACA10"/>
<stop offset="1" stop-color="#FFF3C4"/>
</linearGradient>
<linearGradient id="paint4_linear_1_170" x1="393" y1="118" x2="393" y2="255" gradientUnits="userSpaceOnUse">
<stop stop-color="#FACA10"/>
<stop offset="1" stop-color="#FFF3C4"/>
</linearGradient>
<linearGradient id="paint5_linear_1_170" x1="442" y1="81" x2="442" y2="255" gradientUnits="userSpaceOnUse">
<stop stop-color="#FACA10"/>
<stop offset="1" stop-color="#FFF3C4"/>
</linearGradient>
<linearGradient id="paint6_linear_1_170" x1="491" y1="109" x2="491" y2="255" gradientUnits="userSpaceOnUse">
<stop stop-color="#FACA10"/>
<stop offset="1" stop-color="#FFF3C4"/>
</linearGradient>
<linearGradient id="paint7_linear_1_170" x1="540" y1="97" x2="540" y2="255" gradientUnits="userSpaceOnUse">
<stop stop-color="#FACA10"/>
<stop offset="1" stop-color="#FFF3C4"/>
</linearGradient>
<linearGradient id="paint8_linear_1_170" x1="589" y1="109" x2="589" y2="255" gradientUnits="userSpaceOnUse">
<stop stop-color="#FACA10"/>
<stop offset="1" stop-color="#FFF3C4"/>
</linearGradient>
</defs>
</svg>
