<svg width="130" height="130" viewBox="0 0 130 130" fill="none" xmlns="http://www.w3.org/2000/svg">
<g filter="url(#filter0_d_132_6)">
<rect x="30" y="10" width="70" height="70" rx="35" fill="#F1A614"/>
</g>
<path d="M58.6732 54.25H51.0938C50.7379 54.25 50.4458 54.1358 50.2175 53.9075C49.9892 53.6792 49.875 53.3871 49.875 53.0312V32.3125H47.4375C47.0816 32.3125 46.7895 32.1983 46.5612 31.97C46.3329 31.7417 46.2188 31.4496 46.2188 31.0938C46.2188 30.7379 46.3329 30.4458 46.5612 30.2175C46.7895 29.9892 47.0816 29.875 47.4375 29.875H81.5625C81.9184 29.875 82.2105 29.9892 82.4388 30.2175C82.6671 30.4458 82.7812 30.7379 82.7812 31.0938C82.7812 31.4496 82.6671 31.7417 82.4388 31.97C82.2105 32.1983 81.9184 32.3125 81.5625 32.3125H79.125V53.0312C79.125 53.3871 79.0108 53.6792 78.7825 53.9075C78.5542 54.1358 78.2621 54.25 77.9062 54.25H70.3268L74.5547 61.5625H71.7357L67.5079 54.25H61.4897L57.2618 61.5625H54.4429L58.6732 54.25ZM76.6875 32.3125H52.3125V51.8125H76.6875V32.3125ZM58.0638 45.3763C57.8095 45.6046 57.5174 45.7188 57.1875 45.7188C56.8576 45.7188 56.572 45.5981 56.3307 45.3568C56.0894 45.1155 55.9688 44.8299 55.9688 44.5C55.9688 44.1701 56.0829 43.878 56.3112 43.6237L61.9479 38.0248L66.7084 41.6055L70.8594 36.4258C71.1641 36.0447 71.5513 35.8859 72.0209 35.9493C72.4905 36.0126 72.8078 36.2665 72.9727 36.711C73.1377 37.1554 73.0678 37.5682 72.7631 37.9492L67.1642 44.957L62.1746 41.224L58.0638 45.3763Z" fill="#08080A" fill-opacity="0.96"/>
<defs>
<filter id="filter0_d_132_6" x="0" y="0" width="130" height="130" filterUnits="userSpaceOnUse" color-interpolation-filters="sRGB">
<feFlood flood-opacity="0" result="BackgroundImageFix"/>
<feColorMatrix in="SourceAlpha" type="matrix" values="0 0 0 0 0 0 0 0 0 0 0 0 0 0 0 0 0 0 127 0" result="hardAlpha"/>
<feOffset dy="20"/>
<feGaussianBlur stdDeviation="15"/>
<feColorMatrix type="matrix" values="0 0 0 0 0.827451 0 0 0 0 0.584314 0 0 0 0 0.137255 0 0 0 0.3 0"/>
<feBlend mode="normal" in2="BackgroundImageFix" result="effect1_dropShadow_132_6"/>
<feBlend mode="normal" in="SourceGraphic" in2="effect1_dropShadow_132_6" result="shape"/>
</filter>
</defs>
</svg>
