<svg width="29" height="30" viewBox="0 0 29 30" fill="none" xmlns="http://www.w3.org/2000/svg">
<path d="M23.0574 12.6486H24.2376C24.5506 12.6486 24.8509 12.7729 25.0722 12.9942C25.2935 13.2156 25.4179 13.5158 25.4179 13.8288V25.6315C25.4179 25.9445 25.2935 26.2447 25.0722 26.4661C24.8509 26.6874 24.5506 26.8118 24.2376 26.8118H5.35336C5.04034 26.8118 4.74013 26.6874 4.51879 26.4661C4.29744 26.2447 4.1731 25.9445 4.1731 25.6315V13.8288C4.1731 13.5158 4.29744 13.2156 4.51879 12.9942C4.74013 12.7729 5.04034 12.6486 5.35336 12.6486H6.53363V11.4683C6.53363 10.3833 6.74733 9.30898 7.16253 8.30661C7.57772 7.30423 8.18629 6.39345 8.95347 5.62627C9.72066 4.85908 10.6314 4.25052 11.6338 3.83532C12.6362 3.42012 13.7105 3.20642 14.7955 3.20642C15.8805 3.20642 16.9548 3.42012 17.9572 3.83532C18.9595 4.25052 19.8703 4.85908 20.6375 5.62627C21.4047 6.39345 22.0133 7.30423 22.4285 8.30661C22.8437 9.30898 23.0574 10.3833 23.0574 11.4683V12.6486ZM6.53363 15.0091L6.53363 24.4512H23.0574V15.0091L6.53363 15.0091ZM13.6152 17.3696H15.9758L15.9758 22.0907H13.6152L13.6152 17.3696ZM20.6968 12.6486V11.4683C20.6968 9.90316 20.0751 8.40213 18.9684 7.29541C17.8617 6.1887 16.3606 5.56695 14.7955 5.56695C13.2304 5.56695 11.7293 6.1887 10.6226 7.29541C9.51591 8.40213 8.89416 9.90316 8.89416 11.4683V12.6486L20.6968 12.6486Z" fill="white"/>
</svg>
