<svg width="29" height="29" viewBox="0 0 29 29" fill="none" xmlns="http://www.w3.org/2000/svg">
<path d="M4.17221 4.19739L25.417 4.19739C25.73 4.19739 26.0302 4.32174 26.2516 4.54308C26.4729 4.76442 26.5973 5.06463 26.5973 5.37765V24.2619C26.5973 24.5749 26.4729 24.8751 26.2516 25.0965C26.0302 25.3178 25.73 25.4422 25.417 25.4422H4.17221C3.85918 25.4422 3.55898 25.3178 3.33764 25.0965C3.11629 24.8751 2.99194 24.5749 2.99194 24.2619L2.99194 5.37765C2.99194 5.06463 3.11629 4.76442 3.33764 4.54308C3.55898 4.32174 3.85918 4.19739 4.17221 4.19739ZM24.2367 9.19936L14.8796 17.5792L5.35248 9.17339L5.35248 23.0816H24.2367V9.19936ZM5.95559 6.55792L14.8666 14.4209L23.649 6.55792L5.95559 6.55792Z" fill="white"/>
</svg>
