<svg width="130" height="130" viewBox="0 0 130 130" fill="none" xmlns="http://www.w3.org/2000/svg">
<g filter="url(#filter0_d_132_10)">
<rect x="30" y="10" width="70" height="70" rx="35" fill="#F83B6B"/>
</g>
<path d="M65 42C67.1358 41.9475 68.9067 41.2183 70.3125 39.8125C71.7183 38.4067 72.4475 36.6358 72.5 34.5C72.4475 32.3642 71.7183 30.5933 70.3125 29.1875C68.9067 27.7817 67.1358 27.0525 65 27C62.8642 27.0525 61.0933 27.7817 59.6875 29.1875C58.2817 30.5933 57.5525 32.3642 57.5 34.5C57.5525 36.6358 58.2817 38.4067 59.6875 39.8125C61.0933 41.2183 62.8642 41.9475 65 42ZM65 44.5C62.1617 44.4217 59.805 43.445 57.93 41.57C56.055 39.695 55.0783 37.3383 55 34.5C55.0783 31.6617 56.055 29.305 57.93 27.43C59.805 25.555 62.1617 24.5783 65 24.5C67.8383 24.5783 70.195 25.555 72.07 27.43C73.945 29.305 74.9217 31.6617 75 34.5C74.9217 37.3383 73.945 39.695 72.07 41.57C70.195 43.445 67.8383 44.4217 65 44.5ZM65 42C65.365 42 65.6646 42.1171 65.8988 42.3512C66.1329 42.5854 66.25 42.885 66.25 43.25V53.25C66.25 53.615 66.1329 53.9146 65.8988 54.1488C65.6646 54.3829 65.365 54.5 65 54.5C64.635 54.5 64.3354 54.3829 64.1012 54.1488C63.8671 53.9146 63.75 53.615 63.75 53.25V43.25C63.75 42.885 63.8671 42.5854 64.1012 42.3512C64.3354 42.1171 64.635 42 65 42ZM60 47.3512V49.89C57.7342 50.2808 55.9242 50.795 54.57 51.4325C53.2158 52.07 52.5258 52.6754 52.5 53.2488C52.5783 54.0563 53.7829 54.87 56.1137 55.69C58.4446 56.51 61.4067 56.9463 65 56.9987C68.5942 56.9463 71.5562 56.51 73.8862 55.69C76.2162 54.87 77.4208 54.0563 77.5 53.2488C77.4742 52.6754 76.7842 52.07 75.43 51.4325C74.0758 50.795 72.2658 50.2808 70 49.89V47.3512C72.9692 47.7938 75.365 48.5425 77.1875 49.5975C79.01 50.6525 79.9475 51.87 80 53.25C79.8958 55.0208 78.4308 56.4921 75.605 57.6637C72.7792 58.8354 69.2442 59.4475 65 59.5C60.755 59.4475 57.22 58.8354 54.395 57.6637C51.57 56.4921 50.105 55.0208 50 53.25C50.0525 51.87 50.99 50.6525 52.8125 49.5975C54.635 48.5425 57.0308 47.7938 60 47.3512Z" fill="#08080A" fill-opacity="0.96"/>
<defs>
<filter id="filter0_d_132_10" x="0" y="0" width="130" height="130" filterUnits="userSpaceOnUse" color-interpolation-filters="sRGB">
<feFlood flood-opacity="0" result="BackgroundImageFix"/>
<feColorMatrix in="SourceAlpha" type="matrix" values="0 0 0 0 0 0 0 0 0 0 0 0 0 0 0 0 0 0 127 0" result="hardAlpha"/>
<feOffset dy="20"/>
<feGaussianBlur stdDeviation="15"/>
<feColorMatrix type="matrix" values="0 0 0 0 0.972549 0 0 0 0 0.231373 0 0 0 0 0.419608 0 0 0 0.3 0"/>
<feBlend mode="normal" in2="BackgroundImageFix" result="effect1_dropShadow_132_10"/>
<feBlend mode="normal" in="SourceGraphic" in2="effect1_dropShadow_132_10" result="shape"/>
</filter>
</defs>
</svg>
