<svg width="130" height="130" viewBox="0 0 130 130" fill="none" xmlns="http://www.w3.org/2000/svg">
<g filter="url(#filter0_d_144_7)">
<path d="M30 45C30 25.67 45.67 10 65 10C84.33 10 100 25.67 100 45C100 64.33 84.33 80 65 80C45.67 80 30 64.33 30 45Z" fill="#554BFE"/>
</g>
<path d="M64.9999 54.2188L73.9061 58.9063C74.0103 58.9321 74.1015 58.9192 74.1799 58.8675C74.2582 58.8159 74.2844 58.7375 74.2586 58.6325L72.5786 48.71L79.7661 41.6788C79.8444 41.6005 79.8707 41.5159 79.8449 41.425C79.819 41.3342 79.754 41.2755 79.6499 41.2488L69.6886 39.8038L65.2349 30.78C65.1824 30.6759 65.104 30.6238 64.9999 30.6238C64.8957 30.6238 64.8174 30.6759 64.7649 30.78L60.3111 39.8038L50.3499 41.2488C50.2457 41.2746 50.1807 41.3334 50.1549 41.425C50.129 41.5167 50.1553 41.6013 50.2336 41.6788L57.4211 48.71L55.7024 58.6325C55.7024 58.7367 55.7415 58.815 55.8199 58.8675C55.8982 58.92 55.9894 58.933 56.0936 58.9063L64.9999 54.2188ZM57.2661 61.0938C56.7711 61.3546 56.2699 61.4655 55.7624 61.4263C55.2549 61.3871 54.7861 61.2113 54.3561 60.8988C53.9261 60.5863 53.6136 60.1892 53.4186 59.7075C53.2236 59.2259 53.1649 58.7246 53.2424 58.2038L54.7274 49.5713L48.4774 43.4775C48.0865 43.1125 47.8328 42.6763 47.7161 42.1688C47.5994 41.6613 47.6257 41.1534 47.7949 40.645C47.964 40.1367 48.244 39.72 48.6349 39.395C49.0257 39.07 49.4815 38.8684 50.0024 38.79L58.6749 37.54L62.5424 29.6888C62.7765 29.1938 63.1153 28.8163 63.5586 28.5563C64.0019 28.2963 64.4836 28.1659 65.0036 28.165C65.5236 28.1642 66.0053 28.2946 66.4486 28.5563C66.8919 28.818 67.2307 29.1955 67.4649 29.6888L71.3324 37.54L80.0049 38.79C80.5257 38.8684 80.9878 39.07 81.3911 39.395C81.7944 39.72 82.0744 40.1367 82.2311 40.645C82.3878 41.1534 82.4074 41.6613 82.2899 42.1688C82.1724 42.6763 81.9186 43.1125 81.5286 43.4775L75.2786 49.5713L76.7636 58.2038C76.8419 58.7246 76.7832 59.2259 76.5874 59.7075C76.3915 60.1892 76.079 60.5863 75.6499 60.8988C75.2207 61.2113 74.7519 61.3871 74.2436 61.4263C73.7353 61.4655 73.234 61.368 72.7399 61.1338L65.0049 57.0325L57.2661 61.0938Z" fill="#08080A" fill-opacity="0.96"/>
<defs>
<filter id="filter0_d_144_7" x="0" y="0" width="130" height="130" filterUnits="userSpaceOnUse" color-interpolation-filters="sRGB">
<feFlood flood-opacity="0" result="BackgroundImageFix"/>
<feColorMatrix in="SourceAlpha" type="matrix" values="0 0 0 0 0 0 0 0 0 0 0 0 0 0 0 0 0 0 127 0" result="hardAlpha"/>
<feOffset dy="20"/>
<feGaussianBlur stdDeviation="15"/>
<feColorMatrix type="matrix" values="0 0 0 0 0.270588 0 0 0 0 0.231373 0 0 0 0 0.968627 0 0 0 0.3 0"/>
<feBlend mode="normal" in2="BackgroundImageFix" result="effect1_dropShadow_144_7"/>
<feBlend mode="normal" in="SourceGraphic" in2="effect1_dropShadow_144_7" result="shape"/>
</filter>
</defs>
</svg>
