<svg width="130" height="130" viewBox="0 0 130 130" fill="none" xmlns="http://www.w3.org/2000/svg">
<g filter="url(#filter0_d_132_11)">
<rect x="30" y="10" width="70" height="70" rx="35" fill="#00760C"/>
</g>
<path d="M78.9063 39.6157C80.1762 40.3518 81.1346 41.3549 81.7813 42.6248C82.4281 43.8948 82.6694 45.2593 82.5053 46.7186C82.3411 48.1778 81.8077 49.46 80.9051 50.565C80.0024 51.67 78.8535 52.4508 77.4584 52.9074C76.9254 55.193 75.7891 57.0276 74.0496 58.4113C72.31 59.795 70.2723 60.5124 67.9363 60.5636H64.2801C63.9242 60.5636 63.6321 60.4494 63.4038 60.2211C63.1755 59.9928 63.0613 59.7007 63.0613 59.3448C63.0613 58.989 63.1755 58.6969 63.4038 58.4686C63.6321 58.2403 63.9242 58.1261 64.2801 58.1261H67.9363C69.511 58.1009 70.9202 57.6504 72.1642 56.7745C73.4081 55.8986 74.297 54.7242 74.8308 53.2511H74.0313C73.6754 53.2511 73.3833 53.1369 73.155 52.9086C72.9267 52.6803 72.8126 52.3882 72.8126 52.0323V39.8448C72.8126 39.489 72.9267 39.1969 73.155 38.9686C73.3833 38.7403 73.6754 38.6261 74.0313 38.6261H75.2501C75.6563 38.6261 76.05 38.6517 76.431 38.7029C76.0751 35.8591 74.8881 33.5232 72.8698 31.6951C70.8516 29.8669 68.395 28.9273 65.5001 28.8761C62.6051 28.9273 60.1485 29.8669 58.1303 31.6951C56.112 33.5232 54.925 35.8591 54.5691 38.7029C54.9501 38.6517 55.3438 38.6261 55.7501 38.6261H56.9688C57.3247 38.6261 57.6168 38.7403 57.8451 38.9686C58.0734 39.1969 58.1876 39.489 58.1876 39.8448V52.0323C58.1876 52.3882 58.0734 52.6803 57.8451 52.9086C57.6168 53.1369 57.3247 53.2511 56.9688 53.2511H55.7501C54.0487 53.2259 52.5634 52.7246 51.2943 51.7472C50.0252 50.7697 49.1684 49.462 48.724 47.824C48.2795 46.186 48.3685 44.6244 48.9909 43.1391C49.6132 41.6539 50.648 40.4794 52.095 39.6157C52.1966 35.8067 53.5043 32.6392 56.0182 30.1131C58.5321 27.5871 61.6931 26.2858 65.5013 26.2095C69.3103 26.2858 72.4713 27.5871 74.9844 30.1131C77.4974 32.6392 78.8051 35.8067 78.9075 39.6157H78.9063ZM55.7501 41.0624C54.3786 41.0876 53.2297 41.5637 52.3034 42.4908C51.3772 43.4178 50.9011 44.5667 50.8751 45.9374C50.9002 47.3089 51.3764 48.4578 52.3034 49.384C53.2305 50.3103 54.3794 50.7864 55.7501 50.8124V41.0624ZM80.1251 45.9374C80.0999 44.5659 79.6237 43.417 78.6967 42.4908C77.7696 41.5645 76.6207 41.0884 75.2501 41.0624V50.8124C76.6216 50.7872 77.7704 50.3111 78.6967 49.384C79.6229 48.4569 80.0991 47.3081 80.1251 45.9374Z" fill="#08080A" fill-opacity="0.96"/>
<defs>
<filter id="filter0_d_132_11" x="0" y="0" width="130" height="130" filterUnits="userSpaceOnUse" color-interpolation-filters="sRGB">
<feFlood flood-opacity="0" result="BackgroundImageFix"/>
<feColorMatrix in="SourceAlpha" type="matrix" values="0 0 0 0 0 0 0 0 0 0 0 0 0 0 0 0 0 0 127 0" result="hardAlpha"/>
<feOffset dy="20"/>
<feGaussianBlur stdDeviation="15"/>
<feColorMatrix type="matrix" values="0 0 0 0 0.827451 0 0 0 0 0.584314 0 0 0 0 0.137255 0 0 0 0.3 0"/>
<feBlend mode="normal" in2="BackgroundImageFix" result="effect1_dropShadow_132_11"/>
<feBlend mode="normal" in="SourceGraphic" in2="effect1_dropShadow_132_11" result="shape"/>
</filter>
</defs>
</svg>
