<svg width="130" height="130" viewBox="0 0 130 130" fill="none" xmlns="http://www.w3.org/2000/svg">
<g filter="url(#filter0_d_132_12)">
<rect x="30" y="10" width="70" height="70" rx="35" fill="#B275FF"/>
</g>
<path d="M61.4999 28.3748C60.8619 28.3974 60.3376 28.614 59.9271 29.0245C59.5166 29.435 59.3 29.9476 59.2774 30.5623V48.2329L53.3646 43.5156C52.7951 43.0598 52.1629 42.8207 51.468 42.7981C50.7731 42.7755 50.118 42.9691 49.5026 43.3788C49.1832 43.6523 48.9896 43.9943 48.9218 44.4048C48.854 44.8153 48.9451 45.1912 49.1952 45.5324L55.3815 53.7356C55.5864 54.0316 55.8427 54.2536 56.1504 54.4017C56.4581 54.5497 56.7829 54.6237 57.1249 54.6237H74.6249V43.6523C74.6249 43.174 74.4823 42.7408 74.1972 42.3529C73.9121 41.965 73.5304 41.7029 73.0521 41.5665L66.0105 39.4468C65.304 39.2186 64.74 38.8256 64.3185 38.2678C63.897 37.7099 63.6863 37.0548 63.6863 36.3023V30.5601C63.6637 29.9447 63.4471 29.4321 63.0366 29.0223C62.6261 28.6125 62.1135 28.3959 61.4988 28.3726L61.4999 28.3748ZM56.2707 43.0376L57.091 43.6873V30.5623C57.091 29.7646 57.2791 29.0241 57.6554 28.3409C58.0316 27.6576 58.5672 27.1108 59.2621 26.7003C59.957 26.2897 60.6975 26.0845 61.4835 26.0845C62.2695 26.0845 63.01 26.2897 63.7049 26.7003C64.3998 27.1108 64.9354 27.6576 65.3116 28.3409C65.6879 29.0241 65.876 29.7646 65.876 30.5623V36.3045C65.876 36.5553 65.9445 36.7773 66.0816 36.9706C66.2187 37.1638 66.4123 37.2947 66.6624 37.3632L73.704 39.4829C74.638 39.779 75.3843 40.3032 75.9429 41.0557C76.5014 41.8082 76.792 42.6741 76.8146 43.6534V54.6248C76.792 55.2402 76.5754 55.7528 76.1649 56.1626C75.7544 56.5724 75.2418 56.789 74.6271 56.8123H57.1271C56.4205 56.8123 55.7654 56.6584 55.1616 56.3507C54.5579 56.043 54.0507 55.6157 53.6402 55.0688L47.454 46.8318C47.1579 46.4213 46.9472 45.9714 46.8218 45.4821C46.6964 44.9929 46.6792 44.4916 46.7704 43.9782C46.8615 43.4649 47.0438 42.9979 47.3172 42.5771C47.5907 42.1564 47.944 41.809 48.3771 41.5348C49.3797 40.8742 50.4563 40.5723 51.6069 40.6292C52.7576 40.686 53.7999 41.0791 54.734 41.8082L56.2707 43.0376Z" fill="#08080A" fill-opacity="0.96"/>
<defs>
<filter id="filter0_d_132_12" x="0" y="0" width="130" height="130" filterUnits="userSpaceOnUse" color-interpolation-filters="sRGB">
<feFlood flood-opacity="0" result="BackgroundImageFix"/>
<feColorMatrix in="SourceAlpha" type="matrix" values="0 0 0 0 0 0 0 0 0 0 0 0 0 0 0 0 0 0 127 0" result="hardAlpha"/>
<feOffset dy="20"/>
<feGaussianBlur stdDeviation="15"/>
<feColorMatrix type="matrix" values="0 0 0 0 0.270588 0 0 0 0 0.231373 0 0 0 0 0.968627 0 0 0 0.3 0"/>
<feBlend mode="normal" in2="BackgroundImageFix" result="effect1_dropShadow_132_12"/>
<feBlend mode="normal" in="SourceGraphic" in2="effect1_dropShadow_132_12" result="shape"/>
</filter>
</defs>
</svg>
