<svg width="293" height="59" viewBox="0 0 293 59" fill="none" xmlns="http://www.w3.org/2000/svg">
<circle cx="285.6" cy="42" r="7" fill="#FBCC04"/>
<circle cx="7" cy="7" r="7" fill="#FBCC04"/>
<path d="M29.556 44.396C28.3827 44.396 27.4733 44.0733 26.828 43.428C26.212 42.7827 25.904 41.8733 25.904 40.7V16.28C25.904 15.0773 26.2413 14.168 26.916 13.552C27.5907 12.9067 28.544 12.584 29.776 12.584C30.8027 12.584 31.6093 12.7893 32.196 13.2C32.812 13.5813 33.3693 14.2267 33.868 15.136L43.328 32.12H41.788L51.204 15.136C51.732 14.2267 52.2893 13.5813 52.876 13.2C53.492 12.7893 54.3133 12.584 55.34 12.584C56.5133 12.584 57.408 12.9067 58.024 13.552C58.6693 14.168 58.992 15.0773 58.992 16.28V40.7C58.992 41.8733 58.684 42.7827 58.068 43.428C57.452 44.0733 56.5427 44.396 55.34 44.396C54.1667 44.396 53.2573 44.0733 52.612 43.428C51.996 42.7827 51.688 41.8733 51.688 40.7V25.564H52.612L45.528 37.884C45.1173 38.5293 44.6773 39.0133 44.208 39.336C43.768 39.6587 43.1667 39.82 42.404 39.82C41.6707 39.82 41.0693 39.6587 40.6 39.336C40.1307 39.0133 39.7053 38.5293 39.324 37.884L32.196 25.52H33.208V40.7C33.208 41.8733 32.9 42.7827 32.284 43.428C31.668 44.0733 30.7587 44.396 29.556 44.396ZM76.9347 44.396C75.6441 44.396 74.6467 44.044 73.9427 43.34C73.2387 42.6067 72.8867 41.5653 72.8867 40.216V28.16L74.5587 32.604L64.4387 18.04C63.9401 17.336 63.7201 16.5587 63.7787 15.708C63.8667 14.828 64.2187 14.0947 64.8347 13.508C65.4801 12.892 66.3894 12.584 67.5627 12.584C68.3841 12.584 69.1321 12.7893 69.8067 13.2C70.4814 13.5813 71.1121 14.2413 71.6987 15.18L77.8587 24.244H76.2747L82.4347 15.136C83.0507 14.1973 83.6814 13.5373 84.3267 13.156C84.9721 12.7747 85.7347 12.584 86.6147 12.584C87.7294 12.584 88.5947 12.8627 89.2107 13.42C89.8267 13.9773 90.1494 14.6813 90.1787 15.532C90.2374 16.3827 89.9734 17.248 89.3867 18.128L79.3547 32.604L80.9827 28.16V40.216C80.9827 43.0027 79.6334 44.396 76.9347 44.396ZM123.956 44.484C120.524 44.484 117.576 43.824 115.112 42.504C112.648 41.184 110.756 39.3213 109.436 36.916C108.145 34.5107 107.5 31.6947 107.5 28.468C107.5 26.0627 107.867 23.8773 108.6 21.912C109.363 19.9467 110.448 18.26 111.856 16.852C113.293 15.444 115.024 14.3733 117.048 13.64C119.101 12.8773 121.404 12.496 123.956 12.496C125.305 12.496 126.699 12.6573 128.136 12.98C129.603 13.2733 130.893 13.728 132.008 14.344C132.829 14.784 133.401 15.3413 133.724 16.016C134.047 16.6907 134.149 17.38 134.032 18.084C133.944 18.788 133.695 19.4187 133.284 19.976C132.873 20.5333 132.345 20.9147 131.7 21.12C131.055 21.296 130.351 21.1933 129.588 20.812C128.708 20.4013 127.828 20.0933 126.948 19.888C126.097 19.6533 125.203 19.536 124.264 19.536C122.445 19.536 120.92 19.888 119.688 20.592C118.485 21.2667 117.576 22.264 116.96 23.584C116.344 24.904 116.036 26.532 116.036 28.468C116.036 30.404 116.344 32.0467 116.96 33.396C117.576 34.716 118.485 35.728 119.688 36.432C120.92 37.1067 122.445 37.444 124.264 37.444C125.027 37.444 125.848 37.356 126.728 37.18C127.608 36.9747 128.473 36.6667 129.324 36.256C130.204 35.8747 130.981 35.772 131.656 35.948C132.36 36.124 132.917 36.476 133.328 37.004C133.768 37.532 134.047 38.148 134.164 38.852C134.281 39.5267 134.179 40.2013 133.856 40.876C133.563 41.5507 133.035 42.0933 132.272 42.504C131.245 43.12 129.969 43.604 128.444 43.956C126.948 44.308 125.452 44.484 123.956 44.484ZM143.513 44.396C142.222 44.396 141.225 44.044 140.521 43.34C139.817 42.6067 139.465 41.58 139.465 40.26V16.72C139.465 15.3707 139.817 14.344 140.521 13.64C141.225 12.936 142.222 12.584 143.513 12.584C144.833 12.584 145.83 12.936 146.505 13.64C147.209 14.344 147.561 15.3707 147.561 16.72V24.948H160.365V16.72C160.365 15.3707 160.702 14.344 161.377 13.64C162.081 12.936 163.093 12.584 164.413 12.584C165.704 12.584 166.686 12.936 167.361 13.64C168.065 14.344 168.417 15.3707 168.417 16.72V40.26C168.417 41.58 168.065 42.6067 167.361 43.34C166.686 44.044 165.704 44.396 164.413 44.396C163.093 44.396 162.081 44.044 161.377 43.34C160.702 42.6067 160.365 41.58 160.365 40.26V31.592H147.561V40.26C147.561 41.58 147.224 42.6067 146.549 43.34C145.874 44.044 144.862 44.396 143.513 44.396ZM179.159 44C177.78 44 176.724 43.648 175.991 42.944C175.287 42.2107 174.935 41.1693 174.935 39.82V17.16C174.935 15.8107 175.287 14.784 175.991 14.08C176.724 13.3467 177.78 12.98 179.159 12.98H194.075C195.131 12.98 195.923 13.244 196.451 13.772C196.979 14.3 197.243 15.0627 197.243 16.06C197.243 17.0867 196.979 17.8787 196.451 18.436C195.923 18.964 195.131 19.228 194.075 19.228H182.679V25.124H193.107C194.133 25.124 194.911 25.388 195.439 25.916C195.996 26.444 196.275 27.2213 196.275 28.248C196.275 29.2747 195.996 30.052 195.439 30.58C194.911 31.108 194.133 31.372 193.107 31.372H182.679V37.752H194.075C195.131 37.752 195.923 38.0307 196.451 38.588C196.979 39.116 197.243 39.8787 197.243 40.876C197.243 41.9027 196.979 42.68 196.451 43.208C195.923 43.736 195.131 44 194.075 44H179.159ZM216.48 44.396C215.365 44.396 214.456 44.1613 213.752 43.692C213.077 43.2227 212.505 42.4747 212.036 41.448L201.388 17.952C200.919 16.9253 200.772 16.0013 200.948 15.18C201.124 14.3587 201.535 13.728 202.18 13.288C202.825 12.8187 203.632 12.584 204.6 12.584C205.803 12.584 206.697 12.848 207.284 13.376C207.9 13.904 208.428 14.6813 208.868 15.708L217.844 36.476H215.38L224.356 15.664C224.796 14.6373 225.324 13.8747 225.94 13.376C226.556 12.848 227.421 12.584 228.536 12.584C229.445 12.584 230.208 12.8187 230.824 13.288C231.44 13.728 231.821 14.3587 231.968 15.18C232.144 16.0013 231.997 16.9253 231.528 17.952L220.836 41.448C220.396 42.4747 219.839 43.2227 219.164 43.692C218.489 44.1613 217.595 44.396 216.48 44.396ZM234.994 44.396C234.085 44.396 233.322 44.1907 232.706 43.78C232.09 43.34 231.709 42.7533 231.562 42.02C231.416 41.2573 231.548 40.4067 231.958 39.468L242.914 15.884C243.442 14.74 244.088 13.904 244.85 13.376C245.642 12.848 246.537 12.584 247.534 12.584C248.532 12.584 249.397 12.848 250.13 13.376C250.893 13.904 251.553 14.74 252.11 15.884L263.066 39.468C263.536 40.4067 263.697 41.2573 263.55 42.02C263.433 42.7827 263.066 43.3693 262.45 43.78C261.864 44.1907 261.13 44.396 260.25 44.396C259.077 44.396 258.168 44.132 257.522 43.604C256.906 43.076 256.349 42.2253 255.85 41.052L253.474 35.464L256.554 37.708H238.426L241.55 35.464L239.174 41.052C238.646 42.2253 238.104 43.076 237.546 43.604C236.989 44.132 236.138 44.396 234.994 44.396ZM247.446 21.428L242.342 33.616L241.11 31.504H253.914L252.682 33.616L247.534 21.428H247.446Z" fill="black"/>
</svg>
